DinishCondensed-Italic.ufo
<glyph name="dollar" format="2">
  <advance width="380"/>
  <unicode hex="0024"/>
  <outline>
    <contour>
      <point x="168" y="28" type="qcurve"/>
      <point x="147" y="-74" type="line"/>
      <point x="93" y="-74" type="line"/>
      <point x="114" y="27" type="line"/>
      <point x="-14" y="37"/>
      <point x="14" y="200" type="qcurve"/>
      <point x="84" y="200" type="line"/>
      <point x="69" y="105"/>
      <point x="126" y="88" type="qcurve"/>
      <point x="176" y="327" type="line"/>
      <point x="166" y="332" type="line" smooth="yes"/>
      <point x="104" y="361"/>
      <point x="65" y="438"/>
      <point x="78" y="502" type="qcurve" smooth="yes"/>
      <point x="95" y="580"/>
      <point x="185" y="668"/>
      <point x="248" y="675" type="qcurve"/>
      <point x="268" y="771" type="line"/>
      <point x="322" y="771" type="line"/>
      <point x="302" y="674" type="line"/>
      <point x="410" y="657"/>
      <point x="386" y="502" type="qcurve"/>
      <point x="322" y="502" type="line"/>
      <point x="338" y="591"/>
      <point x="288" y="608" type="qcurve"/>
      <point x="242" y="386" type="line"/>
      <point x="302" y="358"/>
      <point x="345" y="271"/>
      <point x="331" y="202" type="qcurve" smooth="yes"/>
      <point x="315" y="126"/>
      <point x="233" y="37"/>
    </contour>
    <contour>
      <point x="193" y="408" type="qcurve"/>
      <point x="235" y="611" type="line"/>
      <point x="202" y="604"/>
      <point x="157" y="553"/>
      <point x="148" y="512" type="qcurve" smooth="yes"/>
      <point x="140" y="472"/>
      <point x="162" y="424"/>
    </contour>
    <contour>
      <point x="260" y="193" type="qcurve" smooth="yes"/>
      <point x="269" y="235"/>
      <point x="252" y="284"/>
      <point x="225" y="301" type="qcurve"/>
      <point x="181" y="89" type="line"/>
      <point x="242" y="107"/>
    </contour>
  </outline>
</glyph>
<glyph name="zero.tosf" format="2">
  <advance width="418"/>
  <unicode hex="0030"/>
  <outline>
    <contour>
      <point x="38" y="178" type="qcurve" smooth="yes"/>
      <point x="74" y="352" type="line" smooth="yes"/>
      <point x="113" y="538"/>
      <point x="267" y="539" type="qcurve" smooth="yes"/>
      <point x="419" y="539"/>
      <point x="380" y="352" type="qcurve" smooth="yes"/>
      <point x="344" y="178" type="line" smooth="yes"/>
      <point x="305" y="-9"/>
      <point x="153" y="-9" type="qcurve" smooth="yes"/>
      <point x="-1" y="-9"/>
    </contour>
    <contour>
      <point x="257" y="117"/>
      <point x="272" y="189" type="qcurve" smooth="yes"/>
      <point x="304" y="340" type="line" smooth="yes"/>
      <point x="319" y="413"/>
      <point x="297" y="472"/>
      <point x="253" y="472" type="qcurve" smooth="yes"/>
      <point x="209" y="472"/>
      <point x="162" y="413"/>
      <point x="147" y="340" type="qcurve" smooth="yes"/>
      <point x="115" y="189" type="line" smooth="yes"/>
      <point x="100" y="116"/>
      <point x="123" y="57"/>
      <point x="167" y="57" type="qcurve" smooth="yes"/>
      <point x="211" y="57"/>
    </contour>
  </outline>
</glyph>
<glyph name="one.tosf" format="2">
  <advance width="418"/>
  <unicode hex="0031"/>
  <outline>
    <contour>
      <point x="307" y="453" type="line"/>
      <point x="136" y="361" type="line"/>
      <point x="154" y="447" type="line"/>
      <point x="324" y="539" type="line"/>
      <point x="399" y="539" type="line"/>
      <point x="287" y="0" type="line"/>
      <point x="213" y="0" type="line"/>
    </contour>
  </outline>
</glyph>
<glyph name="three" format="2">
  <advance width="414"/>
  <unicode hex="0033"/>
  <outline>
    <contour>
      <point x="7" y="69"/>
      <point x="22" y="139" type="qcurve" smooth="yes"/>
      <point x="31" y="184" type="line"/>
      <point x="105" y="184" type="line"/>
      <point x="97" y="145" type="line" smooth="yes"/>
      <point x="88" y="103"/>
      <point x="122" y="57"/>
      <point x="161" y="57" type="qcurve" smooth="yes"/>
      <point x="202" y="57"/>
      <point x="254" y="106"/>
      <point x="264" y="152" type="qcurve" smooth="yes"/>
      <point x="280" y="230" type="line" smooth="yes"/>
      <point x="290" y="281"/>
      <point x="260" y="334"/>
      <point x="214" y="334" type="qcurve" smooth="yes"/>
      <point x="184" y="334" type="line"/>
      <point x="198" y="400" type="line"/>
      <point x="228" y="400" type="line" smooth="yes"/>
      <point x="273" y="400"/>
      <point x="323" y="451"/>
      <point x="333" y="500" type="qcurve" smooth="yes"/>
      <point x="344" y="555" type="line" smooth="yes"/>
      <point x="354" y="601"/>
      <point x="322" y="649"/>
      <point x="283" y="649" type="qcurve" smooth="yes"/>
      <point x="245" y="649"/>
      <point x="194" y="603"/>
      <point x="186" y="561" type="qcurve" smooth="yes"/>
      <point x="177" y="520" type="line"/>
      <point x="103" y="520" type="line"/>
      <point x="112" y="562" type="line" smooth="yes"/>
      <point x="127" y="635"/>
      <point x="224" y="716"/>
      <point x="299" y="716" type="qcurve" smooth="yes"/>
      <point x="373" y="716"/>
      <point x="434" y="636"/>
      <point x="419" y="563" type="qcurve" smooth="yes"/>
      <point x="407" y="503" type="line" smooth="yes"/>
      <point x="396" y="452"/>
      <point x="350" y="389"/>
      <point x="306" y="371" type="qcurve"/>
      <point x="346" y="351"/>
      <point x="365" y="285"/>
      <point x="354" y="229" type="qcurve" smooth="yes"/>
      <point x="338" y="155" type="line" smooth="yes"/>
      <point x="322" y="76"/>
      <point x="223" y="-9"/>
      <point x="146" y="-9" type="qcurve" smooth="yes"/>
      <point x="71" y="-9"/>
    </contour>
  </outline>
</glyph>
<glyph name="four" format="2">
  <advance width="425"/>
  <unicode hex="0034"/>
  <outline>
    <contour>
      <point x="364" y="142" type="line"/>
      <point x="302" y="142" type="line"/>
      <point x="272" y="0" type="line"/>
      <point x="197" y="0" type="line"/>
      <point x="227" y="142" type="line"/>
      <point x="12" y="142" type="line"/>
      <point x="25" y="209" type="line"/>
      <point x="277" y="707" type="line"/>
      <point x="352" y="707" type="line"/>
      <point x="98" y="209" type="line"/>
      <point x="240" y="209" type="line"/>
      <point x="279" y="394" type="line"/>
      <point x="354" y="394" type="line"/>
      <point x="315" y="209" type="line"/>
      <point x="377" y="209" type="line"/>
    </contour>
  </outline>
</glyph>
<glyph name="nine" format="2">
  <advance width="404"/>
  <unicode hex="0039"/>
  <outline>
    <contour>
      <point x="254" y="299" type="line"/>
      <point x="245" y="293"/>
      <point x="211" y="285"/>
      <point x="193" y="285" type="qcurve" smooth="yes"/>
      <point x="127" y="285"/>
      <point x="69" y="367"/>
      <point x="84" y="438" type="qcurve" smooth="yes"/>
      <point x="108" y="554" type="line" smooth="yes"/>
      <point x="124" y="630"/>
      <point x="226" y="716"/>
      <point x="297" y="716" type="qcurve" smooth="yes"/>
      <point x="369" y="716"/>
      <point x="432" y="628"/>
      <point x="416" y="552" type="qcurve" smooth="yes"/>
      <point x="395" y="450" type="line" smooth="yes"/>
      <point x="386" y="407"/>
      <point x="359" y="346"/>
      <point x="332" y="302" type="qcurve" smooth="yes"/>
      <point x="142" y="0" type="line"/>
      <point x="67" y="0" type="line"/>
    </contour>
    <contour>
      <point x="310" y="397"/>
      <point x="318" y="440" type="qcurve" smooth="yes"/>
      <point x="342" y="554" type="line" smooth="yes"/>
      <point x="352" y="600"/>
      <point x="321" y="649"/>
      <point x="283" y="649" type="qcurve" smooth="yes"/>
      <point x="244" y="649"/>
      <point x="193" y="600"/>
      <point x="183" y="555" type="qcurve" smooth="yes"/>
      <point x="160" y="444" type="line" smooth="yes"/>
      <point x="151" y="399"/>
      <point x="182" y="350"/>
      <point x="221" y="350" type="qcurve" smooth="yes"/>
      <point x="259" y="350"/>
    </contour>
  </outline>
</glyph>
<glyph name="nine.tosf" format="2">
  <advance width="418"/>
  <unicode hex="0039"/>
  <outline>
    <contour>
      <point x="226" y="130" type="line"/>
      <point x="217" y="124"/>
      <point x="183" y="116"/>
      <point x="165" y="116" type="qcurve" smooth="yes"/>
      <point x="99" y="116"/>
      <point x="41" y="198"/>
      <point x="56" y="269" type="qcurve" smooth="yes"/>
      <point x="78" y="377" type="line" smooth="yes"/>
      <point x="94" y="453"/>
      <point x="196" y="539"/>
      <point x="267" y="539" type="qcurve" smooth="yes"/>
      <point x="339" y="539"/>
      <point x="402" y="451"/>
      <point x="386" y="375" type="qcurve" smooth="yes"/>
      <point x="366" y="281" type="line" smooth="yes"/>
      <point x="357" y="238"/>
      <point x="332" y="177"/>
      <point x="304" y="133" type="qcurve" smooth="yes"/>
      <point x="115" y="-162" type="line"/>
      <point x="40" y="-162" type="line"/>
    </contour>
    <contour>
      <point x="281" y="228"/>
      <point x="290" y="271" type="qcurve" smooth="yes"/>
      <point x="312" y="377" type="line" smooth="yes"/>
      <point x="322" y="423"/>
      <point x="291" y="472"/>
      <point x="253" y="472" type="qcurve" smooth="yes"/>
      <point x="214" y="472"/>
      <point x="163" y="423"/>
      <point x="154" y="378" type="qcurve" smooth="yes"/>
      <point x="132" y="275" type="line" smooth="yes"/>
      <point x="123" y="230"/>
      <point x="154" y="181"/>
      <point x="193" y="181" type="qcurve" smooth="yes"/>
      <point x="231" y="181"/>
    </contour>
  </outline>
</glyph>
<glyph name="semicolon" format="2">
  <advance width="163"/>
  <unicode hex="003B"/>
  <outline>
    <contour>
      <point x="15" y="95" type="line"/>
      <point x="85" y="95" type="line"/>
      <point x="48" y="-84" type="line"/>
      <point x="-35" y="-144" type="line"/>
    </contour>
    <contour>
      <point x="78" y="437" type="line"/>
      <point x="158" y="437" type="line"/>
      <point x="139" y="346" type="line"/>
      <point x="59" y="346" type="line"/>
    </contour>
  </outline>
</glyph>
<glyph name="at" format="2">
  <advance width="751"/>
  <unicode hex="0040"/>
  <outline>
    <contour>
      <point x="64" y="-46"/>
      <point x="19" y="109"/>
      <point x="40" y="213" type="qcurve" smooth="yes"/>
      <point x="73" y="371" type="line" smooth="yes"/>
      <point x="94" y="472"/>
      <point x="206" y="626"/>
      <point x="370" y="709"/>
      <point x="467" y="709" type="qcurve" smooth="yes"/>
      <point x="563" y="709"/>
      <point x="695" y="626"/>
      <point x="744" y="476"/>
      <point x="724" y="380" type="qcurve" smooth="yes"/>
      <point x="691" y="221" type="line" smooth="yes"/>
      <point x="674" y="140"/>
      <point x="589" y="57"/>
      <point x="526" y="57" type="qcurve" smooth="yes"/>
      <point x="487" y="57"/>
      <point x="437" y="92"/>
      <point x="431" y="124" type="qcurve"/>
      <point x="410" y="90"/>
      <point x="352" y="57"/>
      <point x="311" y="57" type="qcurve" smooth="yes"/>
      <point x="251" y="57"/>
      <point x="212" y="136"/>
      <point x="228" y="210" type="qcurve" smooth="yes"/>
      <point x="259" y="360" type="line" smooth="yes"/>
      <point x="274" y="433"/>
      <point x="343" y="510"/>
      <point x="403" y="510" type="qcurve" smooth="yes"/>
      <point x="462" y="510"/>
      <point x="481" y="463" type="qcurve"/>
      <point x="489" y="502" type="line"/>
      <point x="559" y="502" type="line"/>
      <point x="495" y="190" type="line" smooth="yes"/>
      <point x="487" y="155"/>
      <point x="514" y="119"/>
      <point x="540" y="119" type="qcurve" smooth="yes"/>
      <point x="574" y="119"/>
      <point x="614" y="167"/>
      <point x="624" y="214" type="qcurve" smooth="yes"/>
      <point x="658" y="379" type="line" smooth="yes"/>
      <point x="683" y="502"/>
      <point x="575" y="646"/>
      <point x="454" y="646" type="qcurve" smooth="yes"/>
      <point x="332" y="646"/>
      <point x="168" y="501"/>
      <point x="141" y="371" type="qcurve" smooth="yes"/>
      <point x="109" y="214" type="line" smooth="yes"/>
      <point x="81" y="81"/>
      <point x="184" y="-69"/>
      <point x="306" y="-69" type="qcurve" smooth="yes"/>
      <point x="361" y="-69"/>
      <point x="450" y="-44"/>
      <point x="496" y="-16" type="qcurve"/>
      <point x="518" y="-68" type="line"/>
      <point x="463" y="-101"/>
      <point x="354" y="-131"/>
      <point x="293" y="-131" type="qcurve" smooth="yes"/>
      <point x="193" y="-131"/>
    </contour>
    <contour>
      <point x="420" y="169"/>
      <point x="429" y="212" type="qcurve" smooth="yes"/>
      <point x="459" y="358" type="line" smooth="yes"/>
      <point x="468" y="401"/>
      <point x="448" y="446"/>
      <point x="412" y="446" type="qcurve" smooth="yes"/>
      <point x="376" y="446"/>
      <point x="337" y="401"/>
      <point x="329" y="359" type="qcurve" smooth="yes"/>
      <point x="298" y="211" type="line" smooth="yes"/>
      <point x="289" y="167"/>
      <point x="309" y="121"/>
      <point x="344" y="121" type="qcurve" smooth="yes"/>
      <point x="381" y="121"/>
    </contour>
  </outline>
</glyph>
<glyph name="D" format="2">
  <advance width="488"/>
  <unicode hex="0044"/>
  <outline>
    <contour>
      <point x="153" y="707" type="line"/>
      <point x="337" y="707" type="line" smooth="yes"/>
      <point x="423" y="707"/>
      <point x="505" y="600"/>
      <point x="483" y="493" type="qcurve" smooth="yes"/>
      <point x="425" y="214" type="line" smooth="yes"/>
      <point x="402" y="108"/>
      <point x="276" y="0"/>
      <point x="190" y="0" type="qcurve" smooth="yes"/>
      <point x="6" y="0" type="line"/>
    </contour>
    <contour>
      <point x="204" y="67" type="line" smooth="yes"/>
      <point x="259" y="67"/>
      <point x="334" y="140"/>
      <point x="349" y="213" type="qcurve" smooth="yes"/>
      <point x="406" y="485" type="line" smooth="yes"/>
      <point x="422" y="563"/>
      <point x="379" y="640"/>
      <point x="323" y="640" type="qcurve" smooth="yes"/>
      <point x="214" y="640" type="line"/>
      <point x="95" y="67" type="line"/>
    </contour>
  </outline>
</glyph>
<glyph name="M" format="2">
  <advance width="612"/>
  <unicode hex="004D"/>
  <outline>
    <contour>
      <point x="643" y="707" type="line"/>
      <point x="496" y="0" type="line"/>
      <point x="421" y="0" type="line"/>
      <point x="534" y="543" type="line"/>
      <point x="310" y="164" type="line"/>
      <point x="261" y="164" type="line"/>
      <point x="193" y="540" type="line"/>
      <point x="81" y="0" type="line"/>
      <point x="6" y="0" type="line"/>
      <point x="153" y="707" type="line"/>
      <point x="228" y="707" type="line"/>
      <point x="308" y="270" type="line"/>
      <point x="568" y="707" type="line"/>
    </contour>
  </outline>
</glyph>
<glyph name="O" format="2">
  <advance width="489"/>
  <unicode hex="004F"/>
  <outline>
    <contour>
      <point x="19" y="99"/>
      <point x="41" y="206" type="qcurve" smooth="yes"/>
      <point x="102" y="501" type="line" smooth="yes"/>
      <point x="125" y="610"/>
      <point x="252" y="716"/>
      <point x="339" y="716" type="qcurve" smooth="yes"/>
      <point x="426" y="716"/>
      <point x="508" y="609"/>
      <point x="485" y="501" type="qcurve" smooth="yes"/>
      <point x="424" y="206" type="line" smooth="yes"/>
      <point x="402" y="100"/>
      <point x="274" y="-8"/>
      <point x="188" y="-8" type="qcurve" smooth="yes"/>
      <point x="101" y="-8"/>
    </contour>
    <contour>
      <point x="333" y="132"/>
      <point x="349" y="205" type="qcurve" smooth="yes"/>
      <point x="409" y="494" type="line" smooth="yes"/>
      <point x="425" y="572"/>
      <point x="382" y="648"/>
      <point x="326" y="648" type="qcurve" smooth="yes"/>
      <point x="267" y="648"/>
      <point x="192" y="572"/>
      <point x="176" y="494" type="qcurve" smooth="yes"/>
      <point x="116" y="205" type="line" smooth="yes"/>
      <point x="85" y="60"/>
      <point x="203" y="59" type="qcurve" smooth="yes"/>
      <point x="258" y="59"/>
    </contour>
  </outline>
</glyph>
<glyph name="bracketleft" format="2">
  <advance width="259"/>
  <unicode hex="005B"/>
  <outline>
    <contour>
      <point x="164" y="758" type="line"/>
      <point x="311" y="758" type="line"/>
      <point x="297" y="691" type="line"/>
      <point x="221" y="691" type="line"/>
      <point x="73" y="-19" type="line"/>
      <point x="149" y="-19" type="line"/>
      <point x="135" y="-86" type="line"/>
      <point x="-12" y="-86" type="line"/>
    </contour>
  </outline>
</glyph>
<glyph name="b" format="2">
  <advance width="421"/>
  <unicode hex="0062"/>
  <outline>
    <contour>
      <point x="85" y="48" type="qcurve"/>
      <point x="75" y="0" type="line"/>
      <point x="5" y="0" type="line"/>
      <point x="152" y="707" type="line"/>
      <point x="222" y="707" type="line"/>
      <point x="174" y="478" type="line"/>
      <point x="222" y="537"/>
      <point x="287" y="538" type="qcurve" smooth="yes"/>
      <point x="350" y="538"/>
      <point x="409" y="449"/>
      <point x="390" y="357" type="qcurve" smooth="yes"/>
      <point x="352" y="172" type="line" smooth="yes"/>
      <point x="333" y="81"/>
      <point x="237" y="-8"/>
      <point x="174" y="-8" type="qcurve" smooth="yes"/>
      <point x="108" y="-8"/>
    </contour>
    <contour>
      <point x="270" y="113"/>
      <point x="283" y="180" type="qcurve" smooth="yes"/>
      <point x="319" y="349" type="line" smooth="yes"/>
      <point x="345" y="475"/>
      <point x="262" y="475" type="qcurve" smooth="yes"/>
      <point x="219" y="475"/>
      <point x="160" y="411"/>
      <point x="147" y="348" type="qcurve" smooth="yes"/>
      <point x="112" y="179" type="line" smooth="yes"/>
      <point x="100" y="118"/>
      <point x="131" y="54"/>
      <point x="174" y="54" type="qcurve" smooth="yes"/>
      <point x="215" y="54"/>
    </contour>
  </outline>
</glyph>
<glyph name="c" format="2">
  <advance width="418"/>
  <unicode hex="0063"/>
  <outline>
    <contour>
      <point x="12" y="79"/>
      <point x="32" y="172" type="qcurve" smooth="yes"/>
      <point x="70" y="357" type="line" smooth="yes"/>
      <point x="90" y="450"/>
      <point x="192" y="538"/>
      <point x="268" y="538" type="qcurve" smooth="yes"/>
      <point x="343" y="538"/>
      <point x="407" y="454"/>
      <point x="390" y="369" type="qcurve" smooth="yes"/>
      <point x="387" y="354" type="line"/>
      <point x="317" y="354" type="line"/>
      <point x="320" y="369" type="line" smooth="yes"/>
      <point x="342" y="475"/>
      <point x="256" y="475" type="qcurve" smooth="yes"/>
      <point x="211" y="475"/>
      <point x="153" y="418"/>
      <point x="139" y="349" type="qcurve" smooth="yes"/>
      <point x="103" y="180" type="line" smooth="yes"/>
      <point x="89" y="111"/>
      <point x="123" y="54"/>
      <point x="167" y="54" type="qcurve" smooth="yes"/>
      <point x="254" y="54"/>
      <point x="276" y="161" type="qcurve" smooth="yes"/>
      <point x="279" y="175" type="line"/>
      <point x="349" y="175" type="line"/>
      <point x="347" y="162" type="line" smooth="yes"/>
      <point x="329" y="77"/>
      <point x="229" y="-8"/>
      <point x="155" y="-8" type="qcurve" smooth="yes"/>
      <point x="78" y="-8"/>
    </contour>
  </outline>
</glyph>
<glyph name="j" format="2">
  <advance width="199"/>
  <unicode hex="006A"/>
  <outline>
    <contour>
      <point x="154" y="706" type="line"/>
      <point x="225" y="706" type="line"/>
      <point x="205" y="613" type="line"/>
      <point x="134" y="613" type="line"/>
    </contour>
    <contour>
      <point x="-100" y="-93" type="line"/>
      <point x="-84" y="-93" type="line" smooth="yes"/>
      <point x="-11" y="-93"/>
      <point x="5" y="-12" type="qcurve" smooth="yes"/>
      <point x="117" y="529" type="line"/>
      <point x="188" y="529" type="line"/>
      <point x="75" y="-15" type="line" smooth="yes"/>
      <point x="61" y="-84"/>
      <point x="-27" y="-156"/>
      <point x="-95" y="-156" type="qcurve" smooth="yes"/>
      <point x="-113" y="-156" type="line"/>
    </contour>
  </outline>
</glyph>
<glyph name="o" format="2">
  <advance width="418"/>
  <unicode hex="006F"/>
  <outline>
    <contour>
      <point x="12" y="79"/>
      <point x="32" y="172" type="qcurve" smooth="yes"/>
      <point x="70" y="357" type="line" smooth="yes"/>
      <point x="90" y="450"/>
      <point x="192" y="538"/>
      <point x="268" y="538" type="qcurve" smooth="yes"/>
      <point x="342" y="538"/>
      <point x="407" y="450"/>
      <point x="387" y="357" type="qcurve" smooth="yes"/>
      <point x="349" y="172" type="line" smooth="yes"/>
      <point x="330" y="80"/>
      <point x="228" y="-8"/>
      <point x="154" y="-8" type="qcurve" smooth="yes"/>
      <point x="78" y="-8"/>
    </contour>
    <contour>
      <point x="267" y="113"/>
      <point x="280" y="180" type="qcurve" smooth="yes"/>
      <point x="316" y="349" type="line" smooth="yes"/>
      <point x="330" y="417"/>
      <point x="297" y="475"/>
      <point x="254" y="475" type="qcurve" smooth="yes"/>
      <point x="211" y="475"/>
      <point x="153" y="418"/>
      <point x="139" y="349" type="qcurve" smooth="yes"/>
      <point x="103" y="180" type="line" smooth="yes"/>
      <point x="89" y="111"/>
      <point x="123" y="54"/>
      <point x="166" y="54" type="qcurve" smooth="yes"/>
      <point x="209" y="54"/>
    </contour>
  </outline>
</glyph>
<glyph name="braceright" format="2">
  <advance width="314"/>
  <unicode hex="007D"/>
  <outline>
    <contour>
      <point x="-8" y="-19" type="line"/>
      <point x="17" y="-19" type="line" smooth="yes"/>
      <point x="62" y="-19"/>
      <point x="72" y="31" type="qcurve" smooth="yes"/>
      <point x="110" y="210" type="line" smooth="yes"/>
      <point x="122" y="270"/>
      <point x="156" y="324"/>
      <point x="195" y="339" type="qcurve"/>
      <point x="162" y="352"/>
      <point x="151" y="407"/>
      <point x="163" y="467" type="qcurve" smooth="yes"/>
      <point x="199" y="641" type="line" smooth="yes"/>
      <point x="210" y="691"/>
      <point x="165" y="691" type="qcurve" smooth="yes"/>
      <point x="140" y="691" type="line"/>
      <point x="154" y="758" type="line"/>
      <point x="194" y="758" type="line" smooth="yes"/>
      <point x="247" y="758"/>
      <point x="287" y="700"/>
      <point x="274" y="642" type="qcurve" smooth="yes"/>
      <point x="235" y="451" type="line" smooth="yes"/>
      <point x="226" y="408"/>
      <point x="247" y="372"/>
      <point x="285" y="371" type="qcurve"/>
      <point x="272" y="306" type="line"/>
      <point x="233" y="305"/>
      <point x="197" y="269"/>
      <point x="188" y="228" type="qcurve" smooth="yes"/>
      <point x="147" y="30" type="line" smooth="yes"/>
      <point x="135" y="-28"/>
      <point x="71" y="-86"/>
      <point x="18" y="-86" type="qcurve" smooth="yes"/>
      <point x="-22" y="-86" type="line"/>
    </contour>
  </outline>
</glyph>
<glyph name="cent" format="2">
  <advance width="418"/>
  <unicode hex="00A2"/>
  <outline>
    <contour>
      <point x="317" y="354" type="line"/>
      <point x="320" y="369" type="line" smooth="yes"/>
      <point x="338" y="457"/>
      <point x="284" y="471" type="qcurve"/>
      <point x="198" y="58" type="line"/>
      <point x="258" y="74"/>
      <point x="276" y="161" type="qcurve" smooth="yes"/>
      <point x="279" y="175" type="line"/>
      <point x="349" y="175" type="line"/>
      <point x="347" y="162" type="line" smooth="yes"/>
      <point x="331" y="86"/>
      <point x="246" y="2"/>
      <point x="185" y="-6" type="qcurve"/>
      <point x="165" y="-102" type="line"/>
      <point x="110" y="-102" type="line"/>
      <point x="130" y="-7" type="line"/>
      <point x="-2" y="8"/>
      <point x="32" y="172" type="qcurve" smooth="yes"/>
      <point x="70" y="357" type="line" smooth="yes"/>
      <point x="88" y="442"/>
      <point x="177" y="530"/>
      <point x="243" y="537" type="qcurve"/>
      <point x="261" y="627" type="line"/>
      <point x="316" y="627" type="line"/>
      <point x="297" y="536" type="line"/>
      <point x="356" y="528"/>
      <point x="405" y="444"/>
      <point x="390" y="369" type="qcurve" smooth="yes"/>
      <point x="387" y="354" type="line"/>
    </contour>
    <contour>
      <point x="143" y="56" type="qcurve"/>
      <point x="229" y="473" type="line"/>
      <point x="196" y="466"/>
      <point x="151" y="407"/>
      <point x="139" y="349" type="qcurve" smooth="yes"/>
      <point x="103" y="180" type="line" smooth="yes"/>
      <point x="92" y="123"/>
      <point x="113" y="63"/>
    </contour>
  </outline>
</glyph>
<glyph name="ordfeminine" format="2">
  <advance width="301"/>
  <unicode hex="00AA"/>
  <outline>
    <contour>
      <point x="346" y="711"/>
      <point x="336" y="662" type="qcurve" smooth="yes"/>
      <point x="289" y="440" type="line"/>
      <point x="225" y="440" type="line"/>
      <point x="232" y="469" type="line"/>
      <point x="215" y="452"/>
      <point x="182" y="435"/>
      <point x="160" y="435" type="qcurve" smooth="yes"/>
      <point x="117" y="435"/>
      <point x="83" y="487"/>
      <point x="93" y="535" type="qcurve" smooth="yes"/>
      <point x="102" y="579"/>
      <point x="169" y="628"/>
      <point x="219" y="628" type="qcurve" smooth="yes"/>
      <point x="262" y="628" type="line"/>
      <point x="270" y="667" type="line" smooth="yes"/>
      <point x="278" y="709"/>
      <point x="238" y="709" type="qcurve" smooth="yes"/>
      <point x="220" y="709"/>
      <point x="196" y="689"/>
      <point x="193" y="672" type="qcurve" smooth="yes"/>
      <point x="192" y="667" type="line"/>
      <point x="130" y="667" type="line"/>
      <point x="130" y="670" type="line" smooth="yes"/>
      <point x="140" y="716"/>
      <point x="205" y="766"/>
      <point x="251" y="766" type="qcurve" smooth="yes"/>
      <point x="302" y="766"/>
    </contour>
    <contour>
      <point x="239" y="519"/>
      <point x="244" y="542" type="qcurve" smooth="yes"/>
      <point x="252" y="581" type="line"/>
      <point x="219" y="581" type="line" smooth="yes"/>
      <point x="194" y="581"/>
      <point x="164" y="560"/>
      <point x="160" y="537" type="qcurve" smooth="yes"/>
      <point x="151" y="494"/>
      <point x="190" y="494" type="qcurve" smooth="yes"/>
      <point x="211" y="494"/>
    </contour>
  </outline>
</glyph>
<glyph name="mu" format="2">
  <advance width="422"/>
  <unicode hex="00B5"/>
  <outline>
    <contour>
      <point x="115" y="529" type="line"/>
      <point x="184" y="529" type="line"/>
      <point x="105" y="147" type="line" smooth="yes"/>
      <point x="95" y="101"/>
      <point x="130" y="53"/>
      <point x="167" y="53" type="qcurve" smooth="yes"/>
      <point x="203" y="53"/>
      <point x="259" y="103"/>
      <point x="269" y="147" type="qcurve" smooth="yes"/>
      <point x="348" y="529" type="line"/>
      <point x="417" y="529" type="line"/>
      <point x="307" y="0" type="line"/>
      <point x="241" y="0" type="line"/>
      <point x="251" y="48" type="line"/>
      <point x="230" y="20"/>
      <point x="172" y="-8"/>
      <point x="142" y="-8" type="qcurve" smooth="yes"/>
      <point x="99" y="-8"/>
      <point x="79" y="18" type="qcurve"/>
      <point x="42" y="-158" type="line"/>
      <point x="-28" y="-158" type="line"/>
    </contour>
  </outline>
</glyph>
<glyph name="Thorn" format="2">
  <advance width="450"/>
  <unicode hex="00DE"/>
  <outline>
    <contour>
      <point x="467" y="474"/>
      <point x="445" y="372" type="qcurve" smooth="yes"/>
      <point x="403" y="170"/>
      <point x="221" y="170" type="qcurve" smooth="yes"/>
      <point x="115" y="170" type="line"/>
      <point x="80" y="0" type="line"/>
      <point x="6" y="0" type="line"/>
      <point x="153" y="707" type="line"/>
      <point x="227" y="707" type="line"/>
      <point x="200" y="578" type="line"/>
      <point x="306" y="578" type="line" smooth="yes"/>
      <point x="400" y="578"/>
    </contour>
    <contour>
      <point x="355" y="300"/>
      <point x="370" y="372" type="qcurve" smooth="yes"/>
      <point x="386" y="445"/>
      <point x="345" y="511"/>
      <point x="288" y="511" type="qcurve" smooth="yes"/>
      <point x="186" y="511" type="line"/>
      <point x="129" y="236" type="line"/>
      <point x="231" y="236" type="line" smooth="yes"/>
      <point x="288" y="236"/>
    </contour>
  </outline>
</glyph>
<glyph name="germandbls" format="2">
  <advance width="422"/>
  <unicode hex="00DF"/>
  <outline>
    <contour>
      <point x="172" y="59" type="line"/>
      <point x="191" y="59" type="line" smooth="yes"/>
      <point x="223" y="59"/>
      <point x="258" y="90"/>
      <point x="278" y="155"/>
      <point x="293" y="225" type="qcurve" smooth="yes"/>
      <point x="306" y="287"/>
      <point x="312" y="350"/>
      <point x="290" y="385"/>
      <point x="258" y="385" type="qcurve" smooth="yes"/>
      <point x="237" y="385" type="line"/>
      <point x="250" y="447" type="line"/>
      <point x="271" y="447" type="line" smooth="yes"/>
      <point x="308" y="447"/>
      <point x="345" y="499"/>
      <point x="356" y="553" type="qcurve" smooth="yes"/>
      <point x="367" y="605"/>
      <point x="336" y="652"/>
      <point x="296" y="652" type="qcurve" smooth="yes"/>
      <point x="212" y="652"/>
      <point x="192" y="558" type="qcurve" smooth="yes"/>
      <point x="76" y="0" type="line"/>
      <point x="5" y="0" type="line"/>
      <point x="116" y="535" type="line" smooth="yes"/>
      <point x="135" y="624"/>
      <point x="227" y="716"/>
      <point x="310" y="716" type="qcurve" smooth="yes"/>
      <point x="379" y="716"/>
      <point x="443" y="632"/>
      <point x="428" y="558" type="qcurve" smooth="yes"/>
      <point x="416" y="500"/>
      <point x="377" y="442"/>
      <point x="338" y="423" type="qcurve"/>
      <point x="365" y="408"/>
      <point x="382" y="362"/>
      <point x="378" y="291"/>
      <point x="364" y="225" type="qcurve" smooth="yes"/>
      <point x="345" y="136"/>
      <point x="309" y="43"/>
      <point x="244" y="-4"/>
      <point x="187" y="-4" type="qcurve" smooth="yes"/>
      <point x="159" y="-4" type="line"/>
    </contour>
  </outline>
</glyph>
<glyph name="ccedilla" format="2">
  <advance width="418"/>
  <unicode hex="00E7"/>
  <outline>
    <contour>
      <point x="317" y="354" type="line"/>
      <point x="320" y="369" type="line" smooth="yes"/>
      <point x="342" y="475"/>
      <point x="256" y="475" type="qcurve" smooth="yes"/>
      <point x="211" y="475"/>
      <point x="153" y="418"/>
      <point x="139" y="349" type="qcurve" smooth="yes"/>
      <point x="103" y="180" type="line" smooth="yes"/>
      <point x="89" y="111"/>
      <point x="123" y="54"/>
      <point x="167" y="54" type="qcurve" smooth="yes"/>
      <point x="254" y="54"/>
      <point x="276" y="161" type="qcurve" smooth="yes"/>
      <point x="279" y="175" type="line"/>
      <point x="349" y="175" type="line"/>
      <point x="347" y="162" type="line" smooth="yes"/>
      <point x="333" y="94"/>
      <point x="263" y="13"/>
      <point x="211" y="-1" type="qcurve"/>
      <point x="125" y="-156" type="line"/>
      <point x="47" y="-156" type="line"/>
      <point x="140" y="-8" type="line"/>
      <point x="-3" y="2"/>
      <point x="32" y="172" type="qcurve" smooth="yes"/>
      <point x="70" y="357" type="line" smooth="yes"/>
      <point x="90" y="450"/>
      <point x="192" y="538"/>
      <point x="268" y="538" type="qcurve" smooth="yes"/>
      <point x="343" y="538"/>
      <point x="407" y="454"/>
      <point x="390" y="369" type="qcurve" smooth="yes"/>
      <point x="387" y="354" type="line"/>
    </contour>
  </outline>
</glyph>
<glyph name="Lcaron" format="2">
  <advance width="400"/>
  <unicode hex="013D"/>
  <outline>
    <component base="L"/>
    <component base="caroncmb.alt" xOffset="240"/>
    <contour>
      <point x="153" y="707" type="line"/>
      <point x="228" y="707" type="line"/>
      <point x="95" y="67" type="line"/>
      <point x="335" y="67" type="line"/>
      <point x="321" y="0" type="line"/>
      <point x="6" y="0" type="line"/>
    </contour>
  </outline>
</glyph>
<glyph name="breve" format="2">
  <advance width="391"/>
  <unicode hex="02D8"/>
  <outline>
    <contour>
      <point x="259" y="573" type="curve" smooth="yes"/>
      <point x="176" y="573"/>
      <point x="142" y="621"/>
      <point x="160" y="707" type="curve" smooth="yes"/>
      <point x="164" y="725" type="line"/>
      <point x="230" y="725" type="line"/>
      <point x="226" y="707" type="line" smooth="yes"/>
      <point x="216" y="657"/>
      <point x="231" y="633"/>
      <point x="272" y="633" type="curve" smooth="yes"/>
      <point x="313" y="633"/>
      <point x="338" y="657"/>
      <point x="348" y="707" type="curve" smooth="yes"/>
      <point x="352" y="725" type="line"/>
      <point x="418" y="725" type="line"/>
      <point x="414" y="707" type="line" smooth="yes"/>
      <point x="396" y="621"/>
      <point x="342" y="573"/>
    </contour>
  </outline>
</glyph>
<glyph name="tildecomb" format="2">
  <unicode hex="0303"/>
  <outline>
    <contour>
      <point x="-30" y="656" type="line"/>
      <point x="-8" y="675"/>
      <point x="23" y="691"/>
      <point x="42" y="691" type="qcurve" smooth="yes"/>
      <point x="57" y="691"/>
      <point x="77" y="682"/>
      <point x="89" y="673" type="qcurve" smooth="yes"/>
      <point x="101" y="664"/>
      <point x="121" y="654"/>
      <point x="134" y="654" type="qcurve" smooth="yes"/>
      <point x="149" y="654"/>
      <point x="174" y="670"/>
      <point x="199" y="692" type="qcurve"/>
      <point x="184" y="621" type="line"/>
      <point x="164" y="602"/>
      <point x="134" y="586"/>
      <point x="114" y="586" type="qcurve" smooth="yes"/>
      <point x="98" y="586"/>
      <point x="76" y="596"/>
      <point x="62" y="605" type="qcurve" smooth="yes"/>
      <point x="49" y="613"/>
      <point x="34" y="622"/>
      <point x="24" y="622" type="qcurve" smooth="yes"/>
      <point x="8" y="622"/>
      <point x="-21" y="605"/>
      <point x="-45" y="583" type="qcurve"/>
    </contour>
  </outline>
</glyph>
<glyph name="hungarumlautcmb" format="2">
  <unicode hex="030B"/>
  <outline>
    <contour>
      <point x="163" y="722" type="line"/>
      <point x="239" y="722" type="line"/>
      <point x="101" y="590" type="line"/>
      <point x="43" y="590" type="line"/>
    </contour>
    <contour>
      <point x="13" y="722" type="line"/>
      <point x="89" y="722" type="line"/>
      <point x="-49" y="590" type="line"/>
      <point x="-107" y="590" type="line"/>
    </contour>
  </outline>
</glyph>
<glyph name="commaaccentcomb" format="2">
  <unicode hex="0326"/>
  <outline>
    <contour>
      <point x="-96" y="-40" type="line"/>
      <point x="-30" y="-40" type="line"/>
      <point x="-46" y="-117" type="line"/>
      <point x="-124" y="-173" type="line"/>
    </contour>
  </outline>
</glyph>
<glyph name="endash" format="2">
  <advance width="427"/>
  <unicode hex="2013"/>
  <outline>
    <contour>
      <point x="26" y="389" type="line"/>
      <point x="453" y="389" type="line"/>
      <point x="439" y="323" type="line"/>
      <point x="12" y="323" type="line"/>
    </contour>
  </outline>
</glyph>
<glyph name="emdash" format="2">
  <advance width="852"/>
  <unicode hex="2014"/>
  <outline>
    <contour>
      <point x="26" y="389" type="line"/>
      <point x="879" y="389" type="line"/>
      <point x="865" y="323" type="line"/>
      <point x="12" y="323" type="line"/>
    </contour>
  </outline>
</glyph>
<glyph name="quotedblleft" format="2">
  <advance width="286"/>
  <unicode hex="201C"/>
  <outline>
    <contour>
      <point x="161" y="501" type="line"/>
      <point x="91" y="501" type="line"/>
      <point x="128" y="680" type="line"/>
      <point x="211" y="740" type="line"/>
    </contour>
    <contour>
      <point x="294" y="501" type="line"/>
      <point x="224" y="501" type="line"/>
      <point x="261" y="680" type="line"/>
      <point x="344" y="740" type="line"/>
    </contour>
  </outline>
</glyph>
<glyph name="daggerdbl" format="2">
  <advance width="483"/>
  <unicode hex="2021"/>
  <outline>
    <contour>
      <point x="307" y="393" type="line"/>
      <point x="258" y="159" type="line"/>
      <point x="401" y="159" type="line"/>
      <point x="387" y="91" type="line"/>
      <point x="244" y="91" type="line"/>
      <point x="193" y="-156" type="line"/>
      <point x="118" y="-156" type="line"/>
      <point x="169" y="91" type="line"/>
      <point x="24" y="91" type="line"/>
      <point x="38" y="159" type="line"/>
      <point x="183" y="159" type="line"/>
      <point x="232" y="393" type="line"/>
      <point x="87" y="393" type="line"/>
      <point x="101" y="461" type="line"/>
      <point x="246" y="461" type="line"/>
      <point x="297" y="707" type="line"/>
      <point x="372" y="707" type="line"/>
      <point x="321" y="461" type="line"/>
      <point x="464" y="461" type="line"/>
      <point x="450" y="393" type="line"/>
    </contour>
  </outline>
</glyph>
<glyph name="perthousand" format="2">
  <advance width="992"/>
  <unicode hex="2030"/>
  <outline>
    <contour>
      <point x="49" y="335"/>
      <point x="62" y="400" type="qcurve" smooth="yes"/>
      <point x="101" y="586" type="line" smooth="yes"/>
      <point x="114" y="651"/>
      <point x="180" y="714"/>
      <point x="234" y="714" type="qcurve" smooth="yes"/>
      <point x="289" y="714"/>
      <point x="329" y="650"/>
      <point x="316" y="586" type="qcurve" smooth="yes"/>
      <point x="277" y="400" type="line" smooth="yes"/>
      <point x="263" y="334"/>
      <point x="198" y="270"/>
      <point x="142" y="270" type="qcurve" smooth="yes"/>
      <point x="87" y="270"/>
    </contour>
    <contour>
      <point x="542" y="707" type="line"/>
      <point x="606" y="707" type="line"/>
      <point x="205" y="0" type="line"/>
      <point x="141" y="0" type="line"/>
    </contour>
    <contour>
      <point x="199" y="365"/>
      <point x="206" y="400" type="qcurve" smooth="yes"/>
      <point x="245" y="586" type="line" smooth="yes"/>
      <point x="252" y="621"/>
      <point x="242" y="650"/>
      <point x="221" y="650" type="qcurve" smooth="yes"/>
      <point x="201" y="650"/>
      <point x="178" y="621"/>
      <point x="171" y="586" type="qcurve" smooth="yes"/>
      <point x="132" y="400" type="line" smooth="yes"/>
      <point x="125" y="364"/>
      <point x="135" y="334"/>
      <point x="155" y="334" type="qcurve" smooth="yes"/>
      <point x="176" y="334"/>
    </contour>
    <contour>
      <point x="417" y="56"/>
      <point x="430" y="122" type="qcurve" smooth="yes"/>
      <point x="469" y="307" type="line" smooth="yes"/>
      <point x="482" y="372"/>
      <point x="548" y="435"/>
      <point x="602" y="435" type="qcurve" smooth="yes"/>
      <point x="657" y="435"/>
      <point x="697" y="372"/>
      <point x="684" y="307" type="qcurve" smooth="yes"/>
      <point x="645" y="122" type="line" smooth="yes"/>
      <point x="632" y="56"/>
      <point x="566" y="-8"/>
      <point x="510" y="-8" type="qcurve" smooth="yes"/>
      <point x="455" y="-8"/>
    </contour>
    <contour>
      <point x="701" y="56"/>
      <point x="714" y="122" type="qcurve" smooth="yes"/>
      <point x="753" y="307" type="line" smooth="yes"/>
      <point x="766" y="372"/>
      <point x="833" y="435"/>
      <point x="887" y="435" type="qcurve" smooth="yes"/>
      <point x="942" y="435"/>
      <point x="981" y="372"/>
      <point x="968" y="307" type="qcurve" smooth="yes"/>
      <point x="929" y="122" type="line" smooth="yes"/>
      <point x="916" y="56"/>
      <point x="850" y="-8"/>
      <point x="795" y="-8" type="qcurve" smooth="yes"/>
      <point x="740" y="-8"/>
    </contour>
    <contour>
      <point x="567" y="86"/>
      <point x="574" y="122" type="qcurve" smooth="yes"/>
      <point x="613" y="307" type="line" smooth="yes"/>
      <point x="620" y="342"/>
      <point x="610" y="372"/>
      <point x="589" y="372" type="qcurve" smooth="yes"/>
      <point x="569" y="372"/>
      <point x="546" y="342"/>
      <point x="539" y="307" type="qcurve" smooth="yes"/>
      <point x="500" y="122" type="line" smooth="yes"/>
      <point x="493" y="86"/>
      <point x="503" y="55"/>
      <point x="523" y="55" type="qcurve" smooth="yes"/>
      <point x="544" y="55"/>
    </contour>
    <contour>
      <point x="852" y="86"/>
      <point x="859" y="122" type="qcurve" smooth="yes"/>
      <point x="898" y="307" type="line" smooth="yes"/>
      <point x="905" y="342"/>
      <point x="894" y="372"/>
      <point x="874" y="372" type="qcurve" smooth="yes"/>
      <point x="854" y="372"/>
      <point x="831" y="342"/>
      <point x="824" y="307" type="qcurve" smooth="yes"/>
      <point x="785" y="122" type="line" smooth="yes"/>
      <point x="778" y="86"/>
      <point x="787" y="55"/>
      <point x="808" y="55" type="qcurve" smooth="yes"/>
      <point x="828" y="55"/>
    </contour>
  </outline>
</glyph>
<glyph name="zero.sups" format="2">
  <advance width="281"/>
  <outline>
    <contour>
      <point x="83" y="499"/>
      <point x="96" y="564" type="qcurve" smooth="yes"/>
      <point x="135" y="750" type="line" smooth="yes"/>
      <point x="148" y="815"/>
      <point x="215" y="878"/>
      <point x="269" y="878" type="qcurve" smooth="yes"/>
      <point x="324" y="878"/>
      <point x="363" y="814"/>
      <point x="350" y="750" type="qcurve" smooth="yes"/>
      <point x="311" y="564" type="line" smooth="yes"/>
      <point x="298" y="498"/>
      <point x="232" y="434"/>
      <point x="176" y="434" type="qcurve" smooth="yes"/>
      <point x="121" y="434"/>
    </contour>
    <contour>
      <point x="233" y="528"/>
      <point x="240" y="564" type="qcurve" smooth="yes"/>
      <point x="279" y="750" type="line" smooth="yes"/>
      <point x="286" y="785"/>
      <point x="276" y="814"/>
      <point x="255" y="814" type="qcurve" smooth="yes"/>
      <point x="235" y="814"/>
      <point x="212" y="784"/>
      <point x="205" y="750" type="qcurve" smooth="yes"/>
      <point x="166" y="564" type="line" smooth="yes"/>
      <point x="159" y="528"/>
      <point x="170" y="498"/>
      <point x="190" y="498" type="qcurve" smooth="yes"/>
      <point x="211" y="498"/>
    </contour>
  </outline>
</glyph>
